# xmcd
#
# Track frame offsets:
#   150
#   12105
#   25875
#   36112
#   48442
#   61660
#   72802
#   82005
#   93307
#   105270
#
# Disc length: 1563 seconds
#
# Revision: 0
# Processed by: cddbd v1.5.2PL0 Copyright (c) Steve Scherf et al.
# Submitted via: uFREEDB ActiveX Control 1.5
#
DISCID=6e06190a
DTITLE=Ataulfo Alves - Os Grandes da MPB V042
DYEAR=1998
DGENRE=Latin
TTITLE0=Atire a Primeira Pedra
TTITLE1=Favela
TTITLE2=Requebrado da Mulata
TTITLE3=Corda e Caçamba
TTITLE4=Ai, que Saudadesda Amélia
TTITLE5=Mulata Assanhada
TTITLE6=Pai Joaquim D'angola
TTITLE7=Laranja Madura
TTITLE8=Ago-I
TTITLE9=Diz-me com Quem Andas
EXTD=
EXTT0=
EXTT1=
EXTT2=
EXTT3=
EXTT4=
EXTT5=
EXTT6=
EXTT7=
EXTT8=
EXTT9=
PLAYORDER=
